<svg width="463" height="254" viewBox="0 0 463 254" fill="none" xmlns="http://www.w3.org/2000/svg">
<path d="M33.0315 53.0014C36.5914 53.3903 39.5157 56.0156 41.8043 60.8774C44.0928 65.6419 45.7457 71.0871 46.7628 77.2129C47.7799 83.3387 48.2885 89.6104 48.2885 96.0279C48.2885 102.445 47.7799 108.717 46.7628 114.843C45.7965 120.969 44.1437 126.463 41.8043 131.324C39.5157 136.089 36.5914 138.666 33.0315 139.054H4.95853C3.5854 138.957 2.4157 138.034 1.44942 136.283C0.533996 134.436 0.0508568 132.199 0 129.574V93.4026C0.0508568 90.68 0.584853 88.4436 1.60199 86.6933C2.61912 84.8459 3.83969 83.9221 5.26368 83.9221C6.63681 84.0194 7.80651 84.9917 8.77279 86.8392C9.73907 88.5894 10.2476 90.7772 10.2985 93.4026V115.572C10.2985 118.198 11.0105 119.51 12.4345 119.51H30.4378C32.3703 119.316 33.9723 117.906 35.2437 115.281C36.5152 112.655 37.4306 109.689 37.99 106.383C38.6003 102.98 38.9054 99.5284 38.9054 96.0279C38.9054 92.5274 38.6003 89.1242 37.99 85.8182C37.4306 82.415 36.5152 79.4007 35.2437 76.7753C33.9723 74.15 32.3703 72.7401 30.4378 72.5456H4.95853C1.90713 72.0595 0.254284 68.8993 0 63.0652C0 60.3426 0.457711 58.009 1.37313 56.0643C2.33941 54.1196 3.53455 53.0986 4.95853 53.0014H33.0315Z" fill="url(#paint0_radial)"/>
<path d="M72.242 139.054C67.7666 138.763 64.3847 136.769 62.0961 133.075C59.8076 129.282 58.1547 125.053 57.1376 120.385C56.1204 115.621 55.6119 110.808 55.6119 105.946C55.6119 100.89 56.095 96.0279 57.0613 91.3606C58.0784 86.5961 59.7313 82.3664 62.0198 78.6714C64.3592 74.8793 67.3089 72.9346 70.8689 72.8373H99.8573C101.281 72.8373 102.476 73.7611 103.443 75.6085C104.46 77.3588 104.968 79.4979 104.968 82.026C104.968 84.6514 104.46 86.8878 103.443 88.7353C102.476 90.4855 101.281 91.3606 99.8573 91.3606H71.3266C70.2078 91.3606 69.2161 92.0899 68.3515 93.5484C67.5378 95.0069 66.9275 96.903 66.5207 99.2367C66.1647 101.57 65.9867 103.855 65.9867 106.092C65.9867 108.523 66.1647 110.905 66.5207 113.239C66.9275 115.572 67.5378 117.468 68.3515 118.927C69.2161 120.288 70.2078 121.017 71.3266 121.115H99.8573C101.281 121.115 102.476 121.99 103.443 123.74C104.46 125.49 104.968 127.581 104.968 130.012C104.968 132.54 104.46 134.679 103.443 136.429C102.476 138.179 101.281 139.054 99.8573 139.054H72.242ZM104.053 105.654C104.053 107.502 103.621 109.106 102.756 110.467C101.993 111.731 101.027 112.363 99.8573 112.363H74.912C73.7423 112.363 72.7506 111.731 71.9369 110.467C71.1232 109.106 70.7163 107.502 70.7163 105.654C70.7163 103.904 71.1232 102.348 71.9369 100.987C72.7506 99.7229 73.7423 99.0908 74.912 99.0908H99.8573C101.027 99.0908 102.019 99.7715 102.832 101.133C103.646 102.397 104.053 103.904 104.053 105.654Z" fill="url(#paint1_radial)"/>
<path d="M112.597 82.6095C112.597 79.8869 113.08 77.6018 114.046 75.7544C115.063 73.8097 116.284 72.8373 117.708 72.8373H160.275C161.699 72.8373 162.92 73.7611 163.937 75.6085C164.903 77.5532 165.386 79.8869 165.386 82.6095C165.386 85.332 164.979 87.374 164.166 88.7353C163.403 89.9993 162.64 91.0689 161.877 91.944L136.016 119.51H160.275C161.699 119.51 162.92 120.434 163.937 122.281C164.903 124.226 165.386 126.56 165.386 129.282C165.386 132.005 164.878 134.339 163.861 136.283C162.894 138.131 161.699 139.054 160.275 139.054H117.708C116.284 139.054 115.089 138.082 114.123 136.137C113.105 134.29 112.597 132.005 112.597 129.282C112.597 126.56 113.105 124.226 114.123 122.281C114.326 121.892 114.529 121.552 114.733 121.26L114.885 121.115L142.119 92.3816H117.708C116.284 92.3816 115.089 91.4093 114.123 89.4646C113.105 87.6171 112.597 85.332 112.597 82.6095Z" fill="url(#paint2_radial)"/>
<path d="M172.633 82.6095C172.633 79.8869 173.116 77.6018 174.083 75.7544C175.1 73.8097 176.32 72.8373 177.744 72.8373H220.312C221.735 72.8373 222.956 73.7611 223.973 75.6085C224.939 77.5532 225.423 79.8869 225.423 82.6095C225.423 85.332 225.016 87.374 224.202 88.7353C223.439 89.9993 222.676 91.0689 221.913 91.944L196.053 119.51H220.312C221.735 119.51 222.956 120.434 223.973 122.281C224.939 124.226 225.423 126.56 225.423 129.282C225.423 132.005 224.914 134.339 223.897 136.283C222.931 138.131 221.735 139.054 220.312 139.054H177.744C176.32 139.054 175.125 138.082 174.159 136.137C173.142 134.29 172.633 132.005 172.633 129.282C172.633 126.56 173.142 124.226 174.159 122.281C174.362 121.892 174.566 121.552 174.769 121.26L174.922 121.115L202.156 92.3816H177.744C176.32 92.3816 175.125 91.4093 174.159 89.4646C173.142 87.6171 172.633 85.332 172.633 82.6095Z" fill="url(#paint3_radial)"/>
<path d="M209.999 253.001C205.399 253.001 200.845 251.987 196.334 249.957C191.911 247.928 187.666 244.969 183.597 241.079C179.529 237.021 175.947 231.694 172.851 225.099C169.755 218.504 168.075 210.641 167.81 201.509V190.855V187.051C167.81 182.316 168.694 178.426 170.463 175.382C172.32 172.169 174.487 170.563 176.964 170.563C182.271 171.408 185.145 176.904 185.588 187.051V193.646C185.764 198.888 186.782 203.285 188.639 206.836C190.585 210.218 192.707 212.924 195.007 214.953C197.395 216.982 199.827 218.504 202.304 219.519C204.869 220.533 207.434 221.041 209.999 221.041C212.564 221.041 215.084 220.533 217.561 219.519C220.126 218.504 222.558 216.982 224.858 214.953C227.246 212.924 229.368 210.218 231.226 206.836C233.172 203.285 234.233 198.888 234.41 193.646V109.939C234.41 105.204 235.294 101.315 237.063 98.2707C238.921 95.0577 241.088 93.4512 243.564 93.4512C248.871 94.2967 251.79 99.7926 252.32 109.939V190.855V201.509C252.055 210.641 250.33 218.504 247.146 225.099C244.051 231.694 240.468 237.021 236.4 241.079C232.331 244.969 228.042 247.928 223.531 249.957C219.109 251.987 214.598 253.001 209.999 253.001Z" fill="url(#paint4_radial)"/>
<path d="M299.285 207.85C299.285 203.116 300.126 199.142 301.806 195.929C303.575 192.546 305.698 190.855 308.174 190.855H328.473L325.023 172.085C323.608 165.152 322.193 158.641 320.778 152.553C319.451 146.296 317.903 140.631 316.134 135.558C314.542 130.485 312.729 127.779 310.695 127.441C308.572 127.779 306.671 130.485 304.99 135.558C303.31 140.631 301.762 146.296 300.347 152.553C299.02 158.641 297.649 165.152 296.234 172.085L283.63 238.036C282.746 241.587 281.596 244.546 280.181 246.914C278.854 249.112 276.82 250.211 274.078 250.211C271.513 250.211 269.391 248.52 267.71 245.138C266.118 241.756 265.41 237.697 265.587 232.962C265.676 230.764 265.941 228.735 266.383 226.875L280.977 154.836C285.046 135.896 289.114 120.592 293.183 108.924C297.163 97.4252 303 91.591 310.695 91.4219C318.301 91.591 324.095 97.4252 328.075 108.924C332.143 120.254 336.212 135.558 340.28 154.836L354.874 226.875C355.316 228.735 355.582 230.764 355.67 232.962C355.847 237.697 355.095 241.756 353.415 245.138C351.823 248.52 349.744 250.211 347.179 250.211C344.26 250.211 342.094 249.112 340.678 246.914C339.352 244.546 338.246 241.587 337.362 238.036L334.841 224.845H308.174C305.698 224.845 303.619 223.154 301.939 219.772C300.17 216.559 299.285 212.585 299.285 207.85Z" fill="url(#paint5_radial)"/>
<path d="M397.063 90.661C400.159 90.661 403.166 91.6756 406.085 93.7048C409.092 95.7341 411.966 98.6934 414.708 102.583C415.15 103.428 415.637 104.274 416.168 105.119C416.61 104.274 417.096 103.428 417.627 102.583C420.369 98.6934 423.199 95.7341 426.118 93.7048C429.125 91.6756 432.132 90.661 435.139 90.661C438.235 90.661 441.242 91.6756 444.161 93.7048C447.168 95.7341 449.998 98.778 452.652 102.837C455.394 106.726 457.782 111.968 459.816 118.563C461.939 125.158 463 133.022 463 142.153V233.723C462.469 243.87 459.551 249.366 454.244 250.211C451.767 250.211 449.6 248.689 447.743 245.645C445.974 242.432 445.09 238.458 445.09 233.723V144.183C445.09 140.124 444.692 136.742 443.896 134.036C443.1 131.162 442.215 128.963 441.242 127.441C440.269 125.75 439.252 124.566 438.191 123.89C437.129 123.045 436.068 122.622 435.007 122.622C433.945 122.622 432.884 123.045 431.823 123.89C430.85 124.566 429.877 125.75 428.904 127.441C427.931 128.963 427.046 131.162 426.25 134.036C425.454 136.742 425.012 140.124 424.924 144.183V233.723C424.393 243.87 421.474 249.366 416.168 250.211C413.691 250.211 411.524 248.689 409.667 245.645C407.898 242.432 407.013 238.458 407.013 233.723V144.183C407.013 140.124 406.615 136.742 405.819 134.036C405.023 131.162 404.139 128.963 403.166 127.441C402.193 125.75 401.176 124.566 400.115 123.89C399.053 123.045 397.992 122.622 396.93 122.622C395.869 122.622 394.808 123.045 393.746 123.89C392.773 124.566 391.801 125.75 390.828 127.441C389.855 128.963 388.97 131.162 388.174 134.036C387.378 136.742 386.936 140.124 386.848 144.183V233.723C386.405 243.87 383.531 249.366 378.224 250.211C375.747 250.211 373.581 248.689 371.723 245.645C369.954 242.432 369.07 238.458 369.07 233.723V142.153C369.247 133.022 370.352 125.158 372.387 118.563C374.421 111.968 376.809 106.726 379.551 102.837C382.293 98.778 385.123 95.7341 388.042 93.7048C391.049 91.6756 394.056 90.661 397.063 90.661Z" fill="url(#paint6_radial)"/>
<path d="M276.732 0.949799C281.331 0.949799 285.886 1.96443 290.396 3.99368C294.819 6.02294 299.064 8.98227 303.133 12.8717C307.201 16.9302 310.783 22.257 313.879 28.8521C316.975 35.4472 318.655 43.3105 318.921 52.4422V63.0958V66.9006C318.921 71.6355 318.036 75.5249 316.267 78.5688C314.41 81.7818 312.243 83.3883 309.766 83.3883C304.46 82.5428 301.585 77.0469 301.143 66.9006V60.3055C300.966 55.0633 299.949 50.6666 298.091 47.1154C296.145 43.7333 294.023 41.0276 291.723 38.9984C289.335 36.9691 286.903 35.4472 284.426 34.4325C281.861 33.4179 279.296 32.9106 276.732 32.9106C274.167 32.9106 271.646 33.4179 269.169 34.4325C266.604 35.4472 264.172 36.9691 261.873 38.9984C259.485 41.0276 257.362 43.7333 255.504 47.1154C253.559 50.6666 252.497 55.0633 252.32 60.3055V144.012C252.32 148.747 251.436 152.637 249.667 155.681C247.81 158.893 245.643 160.5 243.166 160.5C237.859 159.654 234.941 154.159 234.41 144.012V63.0958V52.4422C234.675 43.3105 236.4 35.4472 239.584 28.8521C242.68 22.257 246.262 16.9302 250.33 12.8717C254.399 8.98227 258.689 6.02294 263.199 3.99368C267.622 1.96443 272.132 0.949799 276.732 0.949799Z" fill="url(#paint7_radial)"/>
<ellipse cx="210.5" cy="196" rx="13.5" ry="15" fill="#390040"/>
<ellipse cx="276.5" cy="61" rx="13.5" ry="15" fill="#A2DB2F"/>
<defs>
<radialGradient id="paint0_radial" cx="0" cy="0" r="1" gradientUnits="userSpaceOnUse" gradientTransform="translate(49 52.9998) rotate(37.8038) scale(423.356 1650.68)">
<stop offset="0.157041" stop-color="#80BF12"/>
<stop offset="0.488601" stop-color="#A2DB2F"/>
<stop offset="0.533385" stop-color="#390040"/>
<stop offset="0.927588" stop-color="#662D6B"/>
</radialGradient>
<radialGradient id="paint1_radial" cx="0" cy="0" r="1" gradientUnits="userSpaceOnUse" gradientTransform="translate(49 52.9998) rotate(37.8038) scale(423.356 1650.68)">
<stop offset="0.157041" stop-color="#80BF12"/>
<stop offset="0.488601" stop-color="#A2DB2F"/>
<stop offset="0.533385" stop-color="#390040"/>
<stop offset="0.927588" stop-color="#662D6B"/>
</radialGradient>
<radialGradient id="paint2_radial" cx="0" cy="0" r="1" gradientUnits="userSpaceOnUse" gradientTransform="translate(49 52.9998) rotate(37.8038) scale(423.356 1650.68)">
<stop offset="0.157041" stop-color="#80BF12"/>
<stop offset="0.488601" stop-color="#A2DB2F"/>
<stop offset="0.533385" stop-color="#390040"/>
<stop offset="0.927588" stop-color="#662D6B"/>
</radialGradient>
<radialGradient id="paint3_radial" cx="0" cy="0" r="1" gradientUnits="userSpaceOnUse" gradientTransform="translate(49 52.9998) rotate(37.8038) scale(423.356 1650.68)">
<stop offset="0.157041" stop-color="#80BF12"/>
<stop offset="0.488601" stop-color="#A2DB2F"/>
<stop offset="0.533385" stop-color="#390040"/>
<stop offset="0.927588" stop-color="#662D6B"/>
</radialGradient>
<radialGradient id="paint4_radial" cx="0" cy="0" r="1" gradientUnits="userSpaceOnUse" gradientTransform="translate(49 52.9998) rotate(37.8038) scale(423.356 1650.68)">
<stop offset="0.157041" stop-color="#80BF12"/>
<stop offset="0.488601" stop-color="#A2DB2F"/>
<stop offset="0.533385" stop-color="#390040"/>
<stop offset="0.927588" stop-color="#662D6B"/>
</radialGradient>
<radialGradient id="paint5_radial" cx="0" cy="0" r="1" gradientUnits="userSpaceOnUse" gradientTransform="translate(49 52.9998) rotate(37.8038) scale(423.356 1650.68)">
<stop offset="0.157041" stop-color="#80BF12"/>
<stop offset="0.488601" stop-color="#A2DB2F"/>
<stop offset="0.533385" stop-color="#390040"/>
<stop offset="0.927588" stop-color="#662D6B"/>
</radialGradient>
<radialGradient id="paint6_radial" cx="0" cy="0" r="1" gradientUnits="userSpaceOnUse" gradientTransform="translate(49 52.9998) rotate(37.8038) scale(423.356 1650.68)">
<stop offset="0.157041" stop-color="#80BF12"/>
<stop offset="0.488601" stop-color="#A2DB2F"/>
<stop offset="0.533385" stop-color="#390040"/>
<stop offset="0.927588" stop-color="#662D6B"/>
</radialGradient>
<radialGradient id="paint7_radial" cx="0" cy="0" r="1" gradientUnits="userSpaceOnUse" gradientTransform="translate(49 52.9998) rotate(37.8038) scale(423.356 1650.68)">
<stop offset="0.157041" stop-color="#80BF12"/>
<stop offset="0.488601" stop-color="#A2DB2F"/>
<stop offset="0.533385" stop-color="#390040"/>
<stop offset="0.927588" stop-color="#662D6B"/>
</radialGradient>
</defs>
</svg>
